<svg width="799" height="108" viewBox="0 0 799 108" fill="none" xmlns="http://www.w3.org/2000/svg">
<path d="M153.09 16.6501H163.89V82.8541H204.822V92.2501H153.09V16.6501Z" fill="black"/>
<path d="M236.864 34.4701C244.784 34.4701 250.832 36.4141 255.008 40.3021C259.256 44.1901 261.38 49.9861 261.38 57.6901V92.2501H251.552V84.6901C249.824 87.3541 247.34 89.4061 244.1 90.8461C240.932 92.2141 237.152 92.8981 232.76 92.8981C226.352 92.8981 221.204 91.3501 217.316 88.2541C213.5 85.1581 211.592 81.0901 211.592 76.0501C211.592 71.0101 213.428 66.9781 217.1 63.9541C220.772 60.8581 226.604 59.3101 234.596 59.3101H251.012V57.2581C251.012 52.7941 249.716 49.3741 247.124 46.9981C244.532 44.6221 240.716 43.4341 235.676 43.4341C232.292 43.4341 228.98 44.0101 225.74 45.1621C222.5 46.2421 219.764 47.7181 217.532 49.5901L213.212 41.8141C216.164 39.4381 219.692 37.6381 223.796 36.4141C227.9 35.1181 232.256 34.4701 236.864 34.4701ZM234.488 84.9061C238.448 84.9061 241.868 84.0421 244.748 82.3141C247.628 80.5141 249.716 77.9941 251.012 74.7541V66.7621H235.028C226.244 66.7621 221.852 69.7141 221.852 75.6181C221.852 78.4981 222.968 80.7661 225.2 82.4221C227.432 84.0781 230.528 84.9061 234.488 84.9061Z" fill="black"/>
<path d="M323.011 83.7181V92.2501H275.059V85.5541L308.863 43.5421H275.707V35.0101H322.147V41.8141L288.343 83.7181H323.011Z" fill="black"/>
<path d="M387.775 63.9541C387.775 64.7461 387.703 65.7901 387.559 67.0861H341.119C341.767 72.1261 343.963 76.1941 347.707 79.2901C351.523 82.3141 356.239 83.8261 361.855 83.8261C368.695 83.8261 374.203 81.5221 378.379 76.9141L384.103 83.6101C381.511 86.6341 378.271 88.9381 374.383 90.5221C370.567 92.1061 366.283 92.8981 361.531 92.8981C355.483 92.8981 350.119 91.6741 345.439 89.2261C340.759 86.7061 337.123 83.2141 334.531 78.7501C332.011 74.2861 330.751 69.2461 330.751 63.6301C330.751 58.0861 331.975 53.0821 334.423 48.6181C336.943 44.1541 340.363 40.6981 344.683 38.2501C349.075 35.7301 354.007 34.4701 359.479 34.4701C364.951 34.4701 369.811 35.7301 374.059 38.2501C378.379 40.6981 381.727 44.1541 384.103 48.6181C386.551 53.0821 387.775 58.1941 387.775 63.9541ZM359.479 43.2181C354.511 43.2181 350.335 44.7301 346.951 47.7541C343.639 50.7781 341.695 54.7381 341.119 59.6341H377.839C377.263 54.8101 375.283 50.8861 371.899 47.8621C368.587 44.7661 364.447 43.2181 359.479 43.2181Z" fill="black"/>
<path d="M432.688 16.6501H443.488V82.8541H484.42V92.2501H432.688V16.6501Z" fill="black"/>
<path d="M546.295 63.9541C546.295 64.7461 546.223 65.7901 546.079 67.0861H499.639C500.287 72.1261 502.483 76.1941 506.227 79.2901C510.043 82.3141 514.759 83.8261 520.375 83.8261C527.215 83.8261 532.723 81.5221 536.899 76.9141L542.623 83.6101C540.031 86.6341 536.791 88.9381 532.903 90.5221C529.087 92.1061 524.803 92.8981 520.051 92.8981C514.003 92.8981 508.639 91.6741 503.959 89.2261C499.279 86.7061 495.643 83.2141 493.051 78.7501C490.531 74.2861 489.271 69.2461 489.271 63.6301C489.271 58.0861 490.495 53.0821 492.943 48.6181C495.463 44.1541 498.883 40.6981 503.203 38.2501C507.595 35.7301 512.527 34.4701 517.999 34.4701C523.471 34.4701 528.331 35.7301 532.579 38.2501C536.899 40.6981 540.247 44.1541 542.623 48.6181C545.071 53.0821 546.295 58.1941 546.295 63.9541ZM517.999 43.2181C513.031 43.2181 508.855 44.7301 505.471 47.7541C502.159 50.7781 500.215 54.7381 499.639 59.6341H536.359C535.783 54.8101 533.803 50.8861 530.419 47.8621C527.107 44.7661 522.967 43.2181 517.999 43.2181Z" fill="black"/>
<path d="M632.296 34.4701C639.496 34.4701 645.184 36.5581 649.36 40.7341C653.608 44.9101 655.732 51.1021 655.732 59.3101V92.2501H645.364V60.4981C645.364 54.9541 644.068 50.7781 641.476 47.9701C638.956 45.1621 635.32 43.7581 630.568 43.7581C625.312 43.7581 621.136 45.4141 618.04 48.7261C614.944 51.9661 613.396 56.6461 613.396 62.7661V92.2501H603.028V60.4981C603.028 54.9541 601.732 50.7781 599.14 47.9701C596.62 45.1621 592.984 43.7581 588.232 43.7581C582.976 43.7581 578.8 45.4141 575.704 48.7261C572.608 51.9661 571.06 56.6461 571.06 62.7661V92.2501H560.692V35.0101H570.628V43.5421C572.716 40.5901 575.452 38.3581 578.836 36.8461C582.22 35.2621 586.072 34.4701 590.392 34.4701C594.856 34.4701 598.816 35.3701 602.272 37.1701C605.728 38.9701 608.392 41.5981 610.264 45.0541C612.424 41.7421 615.412 39.1501 619.228 37.2781C623.116 35.4061 627.472 34.4701 632.296 34.4701Z" fill="black"/>
<path d="M699.641 92.8981C693.953 92.8981 688.841 91.6381 684.305 89.1181C679.769 86.5981 676.205 83.1421 673.613 78.7501C671.093 74.2861 669.833 69.2461 669.833 63.6301C669.833 58.0141 671.093 53.0101 673.613 48.6181C676.205 44.1541 679.769 40.6981 684.305 38.2501C688.841 35.7301 693.953 34.4701 699.641 34.4701C705.329 34.4701 710.405 35.7301 714.869 38.2501C719.405 40.6981 722.933 44.1541 725.453 48.6181C728.045 53.0101 729.341 58.0141 729.341 63.6301C729.341 69.2461 728.045 74.2861 725.453 78.7501C722.933 83.1421 719.405 86.5981 714.869 89.1181C710.405 91.6381 705.329 92.8981 699.641 92.8981ZM699.641 83.8261C703.313 83.8261 706.589 82.9981 709.469 81.3421C712.421 79.6141 714.725 77.2381 716.381 74.2141C718.037 71.1181 718.865 67.5901 718.865 63.6301C718.865 59.6701 718.037 56.1781 716.381 53.1541C714.725 50.0581 712.421 47.6821 709.469 46.0261C706.589 44.3701 703.313 43.5421 699.641 43.5421C695.969 43.5421 692.657 44.3701 689.705 46.0261C686.825 47.6821 684.521 50.0581 682.793 53.1541C681.137 56.1781 680.309 59.6701 680.309 63.6301C680.309 67.5901 681.137 71.1181 682.793 74.2141C684.521 77.2381 686.825 79.6141 689.705 81.3421C692.657 82.9981 695.969 83.8261 699.641 83.8261Z" fill="black"/>
<path d="M774.244 34.4701C781.516 34.4701 787.276 36.5941 791.524 40.8421C795.844 45.0181 798.004 51.1741 798.004 59.3101V92.2501H787.636V60.4981C787.636 54.9541 786.304 50.7781 783.64 47.9701C780.976 45.1621 777.16 43.7581 772.192 43.7581C766.576 43.7581 762.148 45.4141 758.908 48.7261C755.668 51.9661 754.048 56.6461 754.048 62.7661V92.2501H743.68V35.0101H753.616V43.6501C755.704 40.6981 758.512 38.4301 762.04 36.8461C765.64 35.2621 769.708 34.4701 774.244 34.4701Z" fill="black"/>
<path fill-rule="evenodd" clip-rule="evenodd" d="M60.7772 42.2577L11.8651 50.8823C10.0595 35.6659 14.989 19.7996 26.6541 8.13449L60.7772 42.2577V42.2577ZM51.4521 95.1422L59.7142 48.2858L12.8579 56.548C14.9752 65.6385 19.5745 74.2659 26.6541 81.3455C33.7342 88.4256 42.3616 93.0243 51.4521 95.1422ZM22.5868 4.06725C0.139054 26.515 0.139054 62.9649 22.5868 85.4133C44.9471 107.773 81.2003 107.861 103.669 85.675L103.933 85.4133L99.8655 81.3455L99.628 81.5813C87.9853 93.0773 72.2312 97.9285 57.1178 96.135L65.7423 47.2228L108 89.4805L107.71 89.7687C82.9943 114.173 43.1163 114.077 18.5196 89.4805C-6.17319 64.7877 -6.17319 24.6928 18.5196 0L22.5868 4.06725V4.06725Z" fill="black"/>
</svg>
